<svg version="1.1" id="Layer_1" xmlns="http://www.w3.org/2000/svg" xmlns:xlink="http://www.w3.org/1999/xlink" x="0px" y="0px"
   viewBox="0 0 17.2 16.4" enable-background="new 0 0 17.2 16.4" xml:space="preserve">
   <style type="text/css">
    .brown {
    fill: #BF9E72;
  }
</style>
<path class='brown' d="M8.6,1.2v7.6L6.9,6.5l0,0L8.6,1.2L8.6,1.2z M1.2,6.8l7.1,2.3L5.6,10l-0.1,0L1,6.7L1.2,6.8z M4.2,15.4l4.4-6l0,2.8v0.1
  l-4.5,3.3L4.2,15.4z M16.1,6.6L8.9,8.9l1.7-2.3l0,0L16.1,6.6L16.1,6.6z M13.3,15.3l-4.4-6l2.7,0.9l0.1,0l1.8,5.3L13.3,15.3z
   M17.2,6.3l-6.5,0L8.6,0l-2,6.3L0,6.3l5.4,3.9l-2,6.3l5.3-3.9l5.4,3.9l-2.1-6.3L17.2,6.3z"/>
</svg>