<svg xmlns="http://www.w3.org/2000/svg" id='ampersand-svg' xmlns:xlink="http://www.w3.org/1999/xlink" version="1.1" x="0px" y="0px" viewBox="0 0 589.316 124.329" xml:space="preserve" class="style0"><style>.style0{enable-background:	new 0 0 589.316 124.329;}.word{fill:	#601844;}.ampersand{fill:	#ADC32B;}</style><g><g><g><path d="M521.357 79.59c0 7.632-0.928 11.1 8.1 11.677v2.315c-4.164-0.115-8.44-0.35-12.602-0.463 c-4.51 0.113-8.902 0.348-13.412 0.463v-2.315c8.672-0.58 8.094-3.353 8.094-10.985V65.486c0-7.978 0.344-19.314-10.639-19.314 c-9.016 0-14.797 7.059-14.797 15.496V79.59c0 7.632-1.043 11.1 8.1 11.677v2.315c-4.162-0.115-8.441-0.35-12.604-0.463 c-4.512 0.113-8.902 0.348-13.414 0.463v-2.315c8.672-0.58 8.094-3.353 8.094-10.985V66.059c0-3.234 0-11.328-0.576-13.982 c-0.928-4.166-4.051-3.701-7.746-3.701v-2.313c6.014-0.697 10.291-2.545 15.953-3.588l1.5 10.521h0.234 c4.047-7.168 10.291-10.521 18.5-10.521c10.982 0 17.2 5 17.2 15.957V79.59z" class="word"/></g><g><path d="M573.824 94.544c-1.273-2.656-1.967-5.664-2.314-8.783c-4.971 6.014-10.174 8.783-18.035 8.8 c-14.57 0-24.629-11.215-24.629-25.55c0-14.104 9.943-26.822 24.629-26.822c6.357 0 12.4 2.3 16.5 7.166V31.07 c0-6.937-0.348-10.635-8.67-10.865v-2.316l18.498-3.699V72.58c0 3.2 0 9 1.2 12.021c1.5 4 4.6 3.8 8.3 3.8 v2.314L573.824 94.544z M570.005 57.662c0-7.281-7.051-11.793-13.758-11.793c-12.486 0-15.844 13.066-15.844 23.1 c0 10.4 3.4 22.4 15.8 22.431c10.404 0 13.758-8.207 13.758-17.343V57.662z" class="word"/></g><g><path d="M24.918 63.471c-2.065 5.234-6.606 15.42-6.606 20.788c0 5.9 7 5.5 11.2 5.926v3.164 c-5.096-0.135-10.052-0.414-15.145-0.549C9.498 92.9 4.8 93.2 0 93.349v-3.164c7.434-0.83 10.463-3.031 13.216-9.78 c3.856-8.809 7.571-17.484 11.429-26.297L45.708 0h4.685l27.812 69.941c1.651 3.6 4.7 12 7.2 15.1 c3.028 4 7.2 4.5 11.8 5.096v3.164c-6.471-0.135-13.08-0.414-19.548-0.549c-6.609 0.135-13.359 0.414-19.966 0.5 v-3.164c3.854-0.139 10.6 0.1 10.603-5.234c0-3.446-1.516-7.577-2.753-10.739l-5.373-14.182H26.159L24.918 63.471z M58.375 55.621L43.233 16.795L27.951 55.621H58.375z" class="word"/><path d="M119.184 79.125c0.118 7.632-1.272 11.1 7.7 11.675v2.313 c-4.161-0.115-8.326-0.344-12.487-0.463c-4.393 0.119-8.786 0.348-13.181 0.463V90.8c8.672-0.576 8.092-3.354 8.092-10.983 V65.598c0-3.244 0-11.334-0.575-13.992c-0.925-4.164-4.046-3.701-7.749-3.701v-2.313c6.014-0.691 10.293-2.541 15.956-3.584 l1.272 9.367c4.396-5.898 9.943-9.367 17.46-9.367c6.821 0 13.5 2.4 15.8 9.367c4.044-6.127 10.173-9.367 17.573-9.367 c5.085 0 10.2 1.4 13.5 5.547c3.121 3.8 3.1 10.5 3.1 15.264v16.307c0.118 7.632-1.155 11.1 7.9 11.675v2.313 c-4.279-0.115-8.559-0.344-12.836-0.463c-4.274 0.119-8.555 0.348-12.832 0.463V90.8c8.558-0.576 7.86-3.354 7.978-10.983V65.248 c0-8.094 0.926-19.541-10.754-19.541c-4.737 0-9.249 3.357-11.215 7.629c-1.504 3.357-1.504 7.633-1.504 11.912v13.877 c0.23 7.632-1.272 11.1 7.9 11.675v2.313c-4.163-0.115-8.439-0.344-12.601-0.463c-4.394 0.119-8.673 0.348-13.067 0.463V90.8 c8.674-0.576 7.862-3.354 7.977-10.983V65.248c0-8.094 0.925-19.541-10.751-19.541c-4.74 0-9.249 3.357-11.219 7.6 c-1.501 3.357-1.501 7.633-1.501 11.912V79.125z" class="word"/><path d="M207.766 51.605h0.233c4.275-6.129 9.594-9.596 17.111-9.596 c15.261 0 25.7 11.4 25.7 26.478c0 14.102-10.407 25.897-24.974 25.897c-6.821 0-11.679-2.08-16.65-6.594v22.432 c0 8.326-0.809 11.3 8.9 11.799v2.307c-4.278-0.115-8.556-0.346-12.837-0.459c-4.622 0.113-9.247 0.344-13.87 0.459v-2.307 c8.67-0.582 7.979-3.473 7.979-11.1V65.598c0-3.242 0-11.334-0.58-13.992c-0.923-4.164-4.047-3.701-7.744-3.701v-2.311 c5.779-0.809 11.444-2.314 16.762-3.584V51.605z M209.154 73.455c0 3.9 0 9.6 2.5 12.6 c2.659 3.1 7.2 4.6 11.3 4.629c12.487 0 16.189-12.142 16.189-22.548c0-10.519-3.352-22.432-15.955-22.432 c-4.86 0-9.254 2.43-11.68 6.59c-2.428 4.162-2.428 8.211-2.428 12.951V73.455z" class="word"/><path d="M303.136 84.558c-5.432 6.707-11.908 9.828-20.582 9.828c-14.337 0-26.128-10.061-26.128-24.862 c0-14.451 10.985-27.516 26.014-27.516c11.329 0 22.1 6.4 22.1 18.848c0 1.5-1.73 1.043-2.891 1.043h-33.181l-0.464 5.5 c0 11 5.8 23.2 18.1 23.241c5.9 0 11.102-3.93 14.575-8.56L303.136 84.558z M288.107 58.8 c1.847 0 5.7 0.6 5.662-2.314c0-7.164-3.928-11.789-11.215-11.789c-8.67 0-12.138 6.586-13.527 14.103H288.107z" class="word"/><path d="M326.21 79.125V67.676c0-17.633-1.506-22.314-2.545-25.668c-5.088 1.156-10.176 3.24-15.609 3.6 v2.313c3.701 0 6.592-0.463 7.6 3.701c0.811 2.7 0.7 10.9 0.7 13.992v14.219c0 7.6 0.6 10.407-8.096 10.983v2.313 c4.512-0.115 8.908-0.344 13.414-0.463c4.395 0.1 8.9 0.3 13.3 0.463V90.8C325.283 90.3 326.2 87.6 326.2 79.1" class="word"/><path d="M343.415 39.803c-10.668 0-13.334 12.424-15.262 20.601c1.654-6.613 5.602-18.381 14.166-18.381 c1 0 2.1 0.6 2.1 1.463c0 2.029-5.527 2.576-5.527 9.016c0 3.8 3.1 7.2 6.8 7.162c5.518 0 8.648-3.949 8.648-9.365 C354.357 44.1 349.4 39.8 343.4 39.8" class="word"/></g><g><path d="M464.908 85.292c-1.273 1.621-2.428 3.701-4.742 3.701c-4.508 0-4.047-8.554-4.047-11.448V58.471 c0-13.299-5.896-16.65-18.73-16.65c-4.059 0-12.617 0.767-17.551 4.041c2.17 0.6 4.1 1.8 5.6 3.4 c1.148-4.369 5.453-4.744 10.586-4.744c9.477 0 10.2 5.6 10.2 13.412c0 1.3 0.2 2.777-0.928 3.354l-11.447 5.5 c-7.398 3.352-18.385 7.512-18.385 17.229c0 6.5 5.9 10.2 12 10.172c7.166 0 13.871-3.813 19.303-8.209 c1.162 4.6 5.2 8.2 9.9 8.209c4.279 0 8.557-3.932 10.406-7.744L464.908 85.292z M446.292 83 c-3.24 3.122-8.209 6.589-12.719 6.589c-4.74 0-7.398-4.045-7.398-8.323c0-9.252 13.18-13.758 20.117-17.111V82.98z" class="word"/></g><path d="M376.275 44.455c0-4.934 2.352-10.096 7.518-10.096c4.834 0 6.2 4.5 6.2 8.1 c0 5.365-2.355 10.857-6.65 14.082c5.15-0.961 11.162-5.057 11.162-10.967c0-7.51-5.805-13.748-14.715-13.748 c-11.393 0-22.24 9.23-22.24 21.912c0 3.9 1 7.8 3 11.105c1.988 3.4 13.4 12 29.6 23.7 c3.553 2.5 7.7 7.6 7.7 12.039c0 9.99-6.887 13.322-13.971 13.322h-0.965v1.601c1.818 0.1 4 0.3 5.9 0.3 c11.066 0 24.496-5.918 24.496-23.967c0-11.915-7.518-18.251-16.225-25.024c-4.295-3.008-9.549-7.082-13.738-10.309 C378.744 53.4 376.3 50.3 376.3 44.5" class="ampersand"/><path d="M379.818 95.394c-9.029 0-23.094-10.527-23.094-20.208c0-3.363 1.102-8.705 3.969-10.646 c-9.893 4.412-18.162 11.479-18.162 23.319c0 12.1 11.4 22.4 23.1 22.357c14.502 0 18.711-9.025 24.496-21.699 C388.404 92.5 384.1 95.4 379.8 95.4" class="ampersand"/><path d="M415.837 47.479c-10.672 0-13.332 12.422-15.262 20.604c1.654-6.617 5.602-18.383 14.168-18.383 c0.996 0 2.1 0.6 2.1 1.467c0 2.023-5.529 2.57-5.529 9.01c0 3.8 3.1 7.2 6.8 7.2 c5.516 0 8.648-3.949 8.648-9.365C426.779 51.8 421.8 47.5 415.8 47.5" class="ampersand"/></g></g></svg>